# xmcd CD database file
#
# Track frame offsets:
#	150
#	22105
#	43820
#	68362
#	85415
#	103467
#	121350
#	140385
#	152095
#	163742
#	173317
#
# Disc length: 2589 seconds
#
# Revision: 0
# Processed by: cddbd v1.5.1PL0 Copyright (c) Steve Scherf et al.
# Submitted via: CDex 1.51
#
DISCID=8e0a1b0b
DTITLE=Ada Moore - Jazz Workshop (tal farlow and john laporta)
DYEAR=1900
DGENRE=Jazz
TTITLE0=The Man I Love
TTITLE1=The Man I Love (take 2)
TTITLE2=Something To Live For
TTITLE3=You Came A Long Way From St. Louis
TTITLE4=You Came A Long Way From St. Louis (take 2)
TTITLE5=The Devil Is A Woman
TTITLE6=The Devil Is A Woman (take 2)
TTITLE7=Lass from The Low Country
TTITLE8=Lass from The Low Country (take 2)
TTITLE9=Strange Fascination
TTITLE10=Summertime
EXTD=
EXTT0=
EXTT1=
EXTT2=
EXTT3=
EXTT4=
EXTT5=
EXTT6=
EXTT7=
EXTT8=
EXTT9=
EXTT10=
PLAYORDER=
